<?xml version="1.0" encoding="UTF-8" standalone="no"?><svg xmlns="http://www.w3.org/2000/svg" xmlns:xlink="http://www.w3.org/1999/xlink" contentStyleType="text/css" height="966px" preserveAspectRatio="none" style="width:1128px;height:966px;background:#FFFFFF;" version="1.1" viewBox="0 0 1128 966" width="1128px" zoomAndPan="magnify"><defs/><g><text fill="#000000" font-family="sans-serif" font-size="14" font-weight="bold" lengthAdjust="spacing" textLength="177" x="468.75" y="22.9951">Treadmill State Chart</text><text fill="#000000" font-family="sans-serif" font-size="14" font-weight="bold" lengthAdjust="spacing" textLength="120" x="497.25" y="39.292">C. van Dreumel</text><text fill="#000000" font-family="sans-serif" font-size="14" font-weight="bold" lengthAdjust="spacing" textLength="121" x="496.75" y="55.5889">J.J. Groenendijk</text><ellipse cx="737.5" cy="85.8906" fill="#222222" rx="10" ry="10" style="stroke:none;stroke-width:1.0;"/><g id="init"><rect fill="#F1F1F1" height="64.2344" rx="12.5" ry="12.5" style="stroke:#181818;stroke-width:0.5;" width="143" x="666" y="187.8906"/><line style="stroke:#181818;stroke-width:0.5;" x1="666" x2="809" y1="214.1875" y2="214.1875"/><text fill="#000000" font-family="sans-serif" font-size="14" lengthAdjust="spacing" textLength="24" x="725.5" y="205.8857">init</text><text fill="#000000" font-family="sans-serif" font-size="12" lengthAdjust="spacing" textLength="123" x="671" y="230.3262">Sensors and motors</text><text fill="#000000" font-family="sans-serif" font-size="12" lengthAdjust="spacing" textLength="95" x="671" y="244.2949">Initialize motors</text></g><g id="standby"><rect fill="#F1F1F1" height="78.2031" rx="12.5" ry="12.5" style="stroke:#181818;stroke-width:0.5;" width="147" x="664" y="343.8906"/><line style="stroke:#181818;stroke-width:0.5;" x1="664" x2="811" y1="370.1875" y2="370.1875"/><text fill="#000000" font-family="sans-serif" font-size="14" lengthAdjust="spacing" textLength="58" x="708.5" y="361.8857">standby</text><text fill="#000000" font-family="sans-serif" font-size="12" lengthAdjust="spacing" textLength="111" x="669" y="386.3262">Wait for user input</text><text fill="#000000" font-family="sans-serif" font-size="12" lengthAdjust="spacing" textLength="127" x="669" y="400.2949">Start speed 0.8 km/h</text><text fill="#000000" font-family="sans-serif" font-size="12" lengthAdjust="spacing" textLength="85" x="669" y="414.2637">Start tilt at 0%</text></g><g id="default"><rect fill="#F1F1F1" height="78.2031" rx="12.5" ry="12.5" style="stroke:#181818;stroke-width:0.5;" width="251" x="371" y="513.8906"/><line style="stroke:#181818;stroke-width:0.5;" x1="371" x2="622" y1="540.1875" y2="540.1875"/><text fill="#000000" font-family="sans-serif" font-size="14" lengthAdjust="spacing" textLength="51" x="471" y="531.8857">default</text><text fill="#000000" font-family="sans-serif" font-size="12" lengthAdjust="spacing" textLength="172" x="376" y="556.3262">Apply brake to degree of tilt</text><text fill="#000000" font-family="sans-serif" font-size="12" lengthAdjust="spacing" textLength="231" x="376" y="570.2949">Apply constant power to speed motor</text><text fill="#000000" font-family="sans-serif" font-size="12" lengthAdjust="spacing" textLength="230" x="376" y="584.2637">Changes to tilt and speed are allowed</text></g><g id="diagnostics"><rect fill="#F1F1F1" height="64.2344" rx="12.5" ry="12.5" style="stroke:#181818;stroke-width:0.5;" width="314" x="754.5" y="520.8906"/><line style="stroke:#181818;stroke-width:0.5;" x1="754.5" x2="1068.5" y1="547.1875" y2="547.1875"/><text fill="#000000" font-family="sans-serif" font-size="14" lengthAdjust="spacing" textLength="81" x="871" y="538.8857">diagnostics</text><text fill="#000000" font-family="sans-serif" font-size="12" lengthAdjust="spacing" textLength="95" x="759.5" y="563.3262">Servicing mode</text><text fill="#000000" font-family="sans-serif" font-size="12" lengthAdjust="spacing" textLength="294" x="759.5" y="577.2949">Allow part replacement without triggering alarms</text></g><g id="alterConfig"><rect fill="#F1F1F1" height="64.2344" rx="12.5" ry="12.5" style="stroke:#181818;stroke-width:0.5;" width="343" x="7" y="697.8906"/><line style="stroke:#181818;stroke-width:0.5;" x1="7" x2="350" y1="724.1875" y2="724.1875"/><text fill="#000000" font-family="sans-serif" font-size="14" lengthAdjust="spacing" textLength="81" x="138" y="715.8857">alterConfig</text><text fill="#000000" font-family="sans-serif" font-size="12" lengthAdjust="spacing" textLength="178" x="12" y="740.3262">Alter speed or tilt of treadmill</text><text fill="#000000" font-family="sans-serif" font-size="12" lengthAdjust="spacing" textLength="323" x="12" y="754.2949">Block any further changes untill alteration is complete</text></g><g id="emergency"><rect fill="#F1F1F1" height="92.1719" rx="12.5" ry="12.5" style="stroke:#181818;stroke-width:0.5;" width="269" x="240" y="867.8906"/><line style="stroke:#181818;stroke-width:0.5;" x1="240" x2="509" y1="894.1875" y2="894.1875"/><text fill="#000000" font-family="sans-serif" font-size="14" lengthAdjust="spacing" textLength="81" x="334" y="885.8857">emergency</text><text fill="#000000" font-family="sans-serif" font-size="12" lengthAdjust="spacing" textLength="198" x="245" y="910.3262">Triggered by emergency sensor</text><text fill="#000000" font-family="sans-serif" font-size="12" lengthAdjust="spacing" textLength="87" x="245" y="924.2949">Halt all motors</text><text fill="#000000" font-family="sans-serif" font-size="12" lengthAdjust="spacing" textLength="91" x="245" y="938.2637">Brakes applied</text><text fill="#000000" font-family="sans-serif" font-size="12" lengthAdjust="spacing" textLength="249" x="245" y="952.2324">Waiting for signal that emergency is over</text></g><g id="pause"><rect fill="#F1F1F1" height="92.1719" rx="12.5" ry="12.5" style="stroke:#181818;stroke-width:0.5;" width="249" x="674" y="683.8906"/><line style="stroke:#181818;stroke-width:0.5;" x1="674" x2="923" y1="710.1875" y2="710.1875"/><text fill="#000000" font-family="sans-serif" font-size="14" lengthAdjust="spacing" textLength="42" x="777.5" y="701.8857">pause</text><text fill="#000000" font-family="sans-serif" font-size="12" lengthAdjust="spacing" textLength="172" x="679" y="726.3262">Apply brake to degree of tilt</text><text fill="#000000" font-family="sans-serif" font-size="12" lengthAdjust="spacing" textLength="147" x="679" y="740.2949">Treadmill speed is zero.</text><text fill="#000000" font-family="sans-serif" font-size="12" lengthAdjust="spacing" textLength="229" x="679" y="754.2637">Keep running session data in memory</text><text fill="#000000" font-family="sans-serif" font-size="12" lengthAdjust="spacing" textLength="130" x="679" y="768.2324">Wait for resume input</text></g><!--MD5=[847ec684daa39dd7b47d2a740511cfb5]
link *start to init--><g id="link_*start_init"><path d="M737.5,95.9636 C737.5,113.5836 737.5,153.2926 737.5,182.8396 " fill="none" id="*start-to-init" style="stroke:#181818;stroke-width:1.0;"/><polygon fill="#181818" points="737.5,187.8586,741.5,178.8586,737.5,182.8586,733.5,178.8586,737.5,187.8586" style="stroke:#181818;stroke-width:1.0;"/><text fill="#000000" font-family="sans-serif" font-size="13" lengthAdjust="spacing" textLength="108" x="738.5" y="138.9575">Turn on machine</text><text fill="#000000" font-family="sans-serif" font-size="13" lengthAdjust="spacing" textLength="38" x="773.5" y="154.0903">E_INIT</text></g><!--MD5=[3b7c2dda255b58353c50cc77c9da36b1]
link init to standby--><g id="link_init_standby"><path d="M737.5,251.9326 C737.5,276.6216 737.5,311.4426 737.5,338.8276 " fill="none" id="init-to-standby" style="stroke:#181818;stroke-width:1.0;"/><polygon fill="#181818" points="737.5,343.8506,741.5,334.8506,737.5,338.8506,733.5,334.8506,737.5,343.8506" style="stroke:#181818;stroke-width:1.0;"/><text fill="#000000" font-family="sans-serif" font-size="13" lengthAdjust="spacing" textLength="90" x="738.5" y="294.9575">Start machine</text><text fill="#000000" font-family="sans-serif" font-size="13" lengthAdjust="spacing" textLength="86" x="740.5" y="310.0903">E_TREADMILL</text></g><!--MD5=[f24886dbd41c01b92cceaf97e9d09805]
link standby to default--><g id="link_standby_default"><path d="M663.784,394.4176 C599.481,405.2876 513.305,424.5246 492.5,451.8906 C480.485,467.6946 479.992,489.3116 483.129,508.4036 " fill="none" id="standby-to-default" style="stroke:#181818;stroke-width:1.0;"/><polygon fill="#181818" points="484.104,513.7156,486.4134,504.1413,483.2013,508.7978,478.5448,505.5857,484.104,513.7156" style="stroke:#181818;stroke-width:1.0;"/><text fill="#000000" font-family="sans-serif" font-size="13" lengthAdjust="spacing" textLength="83" x="513" y="464.9575">Start running</text><text fill="#000000" font-family="sans-serif" font-size="13" lengthAdjust="spacing" textLength="122" x="493.5" y="480.0903">E_RUNNING_START</text></g><!--MD5=[a83a08625357d1960eff22516ffbcad6]
link default to standby--><g id="link_default_standby"><path d="M571.757,513.8566 C588.206,504.6596 605.247,494.4246 620.5,483.8906 C634.803,474.0126 664.786,448.3476 690.818,425.4926 " fill="none" id="default-to-standby" style="stroke:#181818;stroke-width:1.0;"/><polygon fill="#181818" points="694.628,422.1426,685.2275,425.0803,690.8726,425.4437,690.5093,431.0889,694.628,422.1426" style="stroke:#181818;stroke-width:1.0;"/><text fill="#000000" font-family="sans-serif" font-size="13" lengthAdjust="spacing" textLength="81" x="676" y="464.9575">Stop running</text><text fill="#000000" font-family="sans-serif" font-size="13" lengthAdjust="spacing" textLength="114" x="659.5" y="480.0903">E_RUNNING_STOP</text></g><!--MD5=[b01aa2180e036341aec736666ab2f35a]
link standby to diagnostics--><g id="link_standby_diagnostics"><path d="M761.93,422.3396 C775.464,441.9926 793.393,465.5636 812.5,483.8906 C825.251,496.1216 840.407,507.7056 854.979,517.7306 " fill="none" id="standby-to-diagnostics" style="stroke:#181818;stroke-width:1.0;"/><polygon fill="#181818" points="859.479,520.7906,854.2861,512.422,855.3444,517.979,849.7875,519.0374,859.479,520.7906" style="stroke:#181818;stroke-width:1.0;"/><text fill="#000000" font-family="sans-serif" font-size="13" lengthAdjust="spacing" textLength="110" x="834" y="464.9575">Enter diagnostics</text><text fill="#000000" font-family="sans-serif" font-size="13" lengthAdjust="spacing" textLength="151" x="813.5" y="480.0903">E_DIAGNOSTICS_START</text></g><!--MD5=[d1aa1c4544b260e50914776f1e986f49]
link diagnostics to standby--><g id="link_diagnostics_standby"><path d="M949.009,520.5226 C968.725,500.1996 985.742,473.5766 969.5,451.8906 C950.839,426.9756 875.916,408.1036 816.193,396.6366 " fill="none" id="diagnostics-to-standby" style="stroke:#181818;stroke-width:1.0;"/><polygon fill="#181818" points="811.194,395.6866,819.2898,401.2953,816.1062,396.6194,820.7822,393.4358,811.194,395.6866" style="stroke:#181818;stroke-width:1.0;"/><text fill="#000000" font-family="sans-serif" font-size="13" lengthAdjust="spacing" textLength="100" x="999" y="464.9575">Exit diagnostics</text><text fill="#000000" font-family="sans-serif" font-size="13" lengthAdjust="spacing" textLength="143" x="977.5" y="480.0903">E_DIAGNOSTICS_STOP</text></g><!--MD5=[10558948451507a0293d92fcb284ee03]
link default to alterConfig--><g id="link_default_alterConfig"><path d="M370.854,561.4286 C281.129,569.7426 171.399,586.9126 142.5,621.8906 C125.647,642.2886 136.58,670.9286 150.68,693.4456 " fill="none" id="default-to-alterConfig" style="stroke:#181818;stroke-width:1.0;"/><polygon fill="#181818" points="153.535,697.8636,152.0118,688.1333,150.8221,693.6636,145.2918,692.4739,153.535,697.8636" style="stroke:#181818;stroke-width:1.0;"/><text fill="#000000" font-family="sans-serif" font-size="13" lengthAdjust="spacing" textLength="129" x="143.5" y="634.9575">Change tilt or speed</text><text fill="#000000" font-family="sans-serif" font-size="13" lengthAdjust="spacing" textLength="124" x="146" y="650.0903">E_CONFIG_CHANGE</text></g><!--MD5=[d7cdfd4075f42fd7837c5a2c772831f4]
link alterConfig to default--><g id="link_alterConfig_default"><path d="M220.973,697.8566 C238.692,684.6166 259.336,668.8056 277.5,653.8906 C294.044,640.3056 295.152,632.9186 313.5,621.8906 C330.907,611.4276 350.191,602.1376 369.521,594.0436 " fill="none" id="alterConfig-to-default" style="stroke:#181818;stroke-width:1.0;"/><polygon fill="#181818" points="374.435,592.0116,364.5895,591.7562,369.8148,593.9231,367.6479,599.1485,374.435,592.0116" style="stroke:#181818;stroke-width:1.0;"/><text fill="#000000" font-family="sans-serif" font-size="13" lengthAdjust="spacing" textLength="113" x="314.5" y="634.9575">Change complete</text><text fill="#000000" font-family="sans-serif" font-size="13" lengthAdjust="spacing" textLength="107" x="317.5" y="650.0903">E_CONFIG_DONE</text></g><!--MD5=[4fa6c036527eda198779f9ab85634e22]
link default to emergency--><g id="link_default_emergency"><path d="M488.894,591.8936 C474.311,664.0526 442.94,815.7126 432.5,837.8906 C428.419,846.5606 423.194,855.1666 417.557,863.2885 " fill="none" id="default-to-emergency" style="stroke:#181818;stroke-width:1.0;"/><polygon fill="#181818" points="414.388,867.7483,422.862,862.7293,417.2844,863.6727,416.341,858.095,414.388,867.7483" style="stroke:#181818;stroke-width:1.0;"/><text fill="#000000" font-family="sans-serif" font-size="13" lengthAdjust="spacing" textLength="182" x="471.5" y="726.9575">Emergency sensor triggered</text><text fill="#000000" font-family="sans-serif" font-size="13" lengthAdjust="spacing" textLength="143" x="491" y="742.0903">E_EMERGENCY_START</text></g><!--MD5=[5f2d92b6f00def72e734435aab89f76d]
link emergency to default--><g id="link_emergency_default"><path d="M509.208,899.2775 C659.286,881.0036 887.829,842.8316 940.5,775.8906 C965.784,743.7566 959.424,720.1366 940.5,683.8906 C918.189,641.1566 895.923,640.6126 851.5,621.8906 C811.528,605.0446 711.201,586.5626 627.362,573.1246 " fill="none" id="emergency-to-default" style="stroke:#181818;stroke-width:1.0;"/><polygon fill="#181818" points="622.371,572.3276,630.6275,577.6971,627.3084,573.1162,631.8892,569.7972,622.371,572.3276" style="stroke:#181818;stroke-width:1.0;"/><text fill="#000000" font-family="sans-serif" font-size="13" lengthAdjust="spacing" textLength="89" x="981.5" y="726.9575">Alarm cleared</text><text fill="#000000" font-family="sans-serif" font-size="13" lengthAdjust="spacing" textLength="135" x="958.5" y="742.0903">E_EMERGENCY_STOP</text></g><!--MD5=[0d5f663fd4faa64d163045f878a121c8]
link default to pause--><g id="link_default_pause"><path d="M513.439,592.3466 C524.412,613.2316 540.573,637.9666 561.5,653.8906 C566.522,657.7116 616.433,673.6986 669.164,689.9366 " fill="none" id="default-to-pause" style="stroke:#181818;stroke-width:1.0;"/><polygon fill="#181818" points="673.945,691.4066,666.5189,684.9372,669.166,689.9365,664.1667,692.5836,673.945,691.4066" style="stroke:#181818;stroke-width:1.0;"/><text fill="#000000" font-family="sans-serif" font-size="13" lengthAdjust="spacing" textLength="140" x="562.5" y="634.9575">Pause button pressed</text><text fill="#000000" font-family="sans-serif" font-size="13" lengthAdjust="spacing" textLength="57" x="604" y="650.0903">E_PAUSE</text></g><!--MD5=[b4fec70187d3aba0e9652d626438eb55]
link pause to default--><g id="link_pause_default"><path d="M769.143,683.8746 C753.171,662.4666 731.733,638.0766 707.5,621.8906 C683.297,605.7236 654.98,593.1746 627.092,583.5166 " fill="none" id="pause-to-default" style="stroke:#181818;stroke-width:1.0;"/><polygon fill="#181818" points="622.257,581.8686,629.4875,588.5559,626.9902,583.4802,632.0659,580.9829,622.257,581.8686" style="stroke:#181818;stroke-width:1.0;"/><text fill="#000000" font-family="sans-serif" font-size="13" lengthAdjust="spacing" textLength="99" x="743.5" y="634.9575">Resume button</text><text fill="#000000" font-family="sans-serif" font-size="13" lengthAdjust="spacing" textLength="67" x="759.5" y="650.0903">E_RESUME</text></g><!--MD5=[1e9bb9fa9ac0e225fda4dfd4d553e01c]
link alterConfig to emergency--><g id="link_alterConfig_emergency"><path d="M110.634,762.0936 C76.1044,782.3116 45.599,809.9956 67.5,837.8906 C88.924,865.1785 164.101,883.8087 234.694,895.6758 " fill="none" id="alterConfig-to-emergency" style="stroke:#181818;stroke-width:1.0;"/><polygon fill="#181818" points="239.768,896.5185,231.5458,891.0967,234.8357,895.6985,230.2339,898.9884,239.768,896.5185" style="stroke:#181818;stroke-width:1.0;"/><text fill="#000000" font-family="sans-serif" font-size="13" lengthAdjust="spacing" textLength="182" x="68.5" y="818.9575">Emergency sensor triggered</text><text fill="#000000" font-family="sans-serif" font-size="13" lengthAdjust="spacing" textLength="143" x="88" y="834.0903">E_EMERGENCY_START</text></g><!--MD5=[28c36713bf6317207479ac126b00e5f6]
link emergency to alterConfig--><g id="link_emergency_alterConfig"><path d="M324.293,867.8657 C313.436,858.0336 302.05,847.6496 291.5,837.8906 C265.627,813.9576 236.779,786.6306 214.708,765.5846 " fill="none" id="emergency-to-alterConfig" style="stroke:#181818;stroke-width:1.0;"/><polygon fill="#181818" points="210.947,761.9966,214.697,771.1036,214.5644,765.4483,220.2197,765.3157,210.947,761.9966" style="stroke:#181818;stroke-width:1.0;"/><text fill="#000000" font-family="sans-serif" font-size="13" lengthAdjust="spacing" textLength="89" x="315.5" y="818.9575">Alarm cleared</text><text fill="#000000" font-family="sans-serif" font-size="13" lengthAdjust="spacing" textLength="135" x="292.5" y="834.0903">E_EMERGENCY_STOP</text></g><!--MD5=[079f04aa7e6a7d49b5d0d4b7347574da]
@startuml
title Treadmill State Chart\nC. van Dreumel\nJ.J. Groenendijk

[*] - -> init : Turn on machine\nE_INIT

init - -> standby : Start machine\nE_TREADMILL

standby - -> default : Start running\nE_RUNNING_START
default - -> standby : Stop running\nE_RUNNING_STOP

standby - -> diagnostics : Enter diagnostics\nE_DIAGNOSTICS_START
diagnostics - -> standby : Exit diagnostics\nE_DIAGNOSTICS_STOP

default - -> alterConfig : Change tilt or speed\nE_CONFIG_CHANGE
alterConfig - -> default : Change complete\nE_CONFIG_DONE
default - -> emergency : Emergency sensor triggered\nE_EMERGENCY_START
emergency - -> default : Alarm cleared\nE_EMERGENCY_STOP
default - -> pause : Pause button pressed\nE_PAUSE
pause - -> default : Resume button\nE_RESUME
alterConfig - -> emergency : Emergency sensor triggered\nE_EMERGENCY_START
emergency - -> alterConfig : Alarm cleared\nE_EMERGENCY_STOP


init : Sensors and motors\nInitialize motors

emergency : Triggered by emergency sensor
emergency : Halt all motors
emergency : Brakes applied
emergency : Waiting for signal that emergency is over

alterConfig : Alter speed or tilt of treadmill
alterConfig : Block any further changes untill alteration is complete

default : Apply brake to degree of tilt
default : Apply constant power to speed motor
default : Changes to tilt and speed are allowed

pause : Apply brake to degree of tilt
pause : Treadmill speed is zero.
pause : Keep running session data in memory
pause : Wait for resume input

standby : Wait for user input
standby : Start speed 0.8 km/h
standby : Start tilt at 0%

diagnostics : Servicing mode
diagnostics : Allow part replacement without triggering alarms
@enduml

PlantUML version 1.2022.14beta4(Unknown compile time)
(GPL source distribution)
Java Runtime: Java(TM) SE Runtime Environment
JVM: Java HotSpot(TM) 64-Bit Server VM
Default Encoding: UTF-8
Language: en
Country: US
--></g></svg>